<svg width="108" height="102" viewBox="0 0 108 102" fill="none" xmlns="http://www.w3.org/2000/svg">
<path d="M40.1111 31.7778H40.1667M67.8889 31.7778H67.9444M87.3333 4C91.7536 4 95.9928 5.75595 99.1184 8.88155C102.244 12.0072 104 16.2464 104 20.6667V65.1111C104 69.5314 102.244 73.7706 99.1184 76.8962C95.9928 80.0218 91.7536 81.7778 87.3333 81.7778H59.5556L31.7778 98.4444V81.7778H20.6667C16.2464 81.7778 12.0072 80.0218 8.88155 76.8962C5.75595 73.7706 4 69.5314 4 65.1111V20.6667C4 16.2464 5.75595 12.0072 8.88155 8.88155C12.0072 5.75595 16.2464 4 20.6667 4H87.3333Z" stroke="#294634" stroke-width="7" stroke-linecap="round" stroke-linejoin="round"/>
<path d="M40.1108 54C41.9213 55.8478 44.0822 57.3157 46.4671 58.3178C48.852 59.32 51.4129 59.8362 53.9997 59.8362C56.5866 59.8362 59.1475 59.32 61.5324 58.3178C63.9172 57.3157 66.0782 55.8478 67.8886 54" stroke="#86A988" stroke-opacity="0.43" stroke-width="7" stroke-linecap="round" stroke-linejoin="round"/>
</svg>
