<svg width="150" height="150" viewBox="0 0 150 150" fill="none" xmlns="http://www.w3.org/2000/svg">
<path d="M20.7217 120.656C18.7686 122.359 17.3106 124.318 16.4945 126.301C15.9232 127.697 15.6489 129.075 15.6489 130.365C15.6489 131.153 15.7482 131.904 15.9639 132.613C16.1273 133.14 16.3486 133.643 16.646 134.105C16.8677 134.458 17.136 134.792 17.4506 135.094C17.923 135.543 18.5059 135.932 19.1999 136.202C19.8881 136.477 20.681 136.623 21.4856 136.619V133.757C21.3165 133.757 21.1882 133.739 21.0658 133.712C20.8501 133.666 20.6751 133.588 20.4769 133.451C20.337 133.345 20.1855 133.208 20.0455 133.02C19.8354 132.75 19.6373 132.375 19.5033 131.926C19.3694 131.473 19.2932 130.947 19.2932 130.365C19.2932 129.4 19.5089 128.301 19.9638 127.175C20.3896 126.14 21.0658 125.069 21.952 124.053C23.2756 122.524 25.0832 121.128 27.1703 120.13C28.2081 119.631 29.3276 119.228 30.4881 118.953C31.6543 118.678 32.873 118.532 34.1324 118.532C35.8117 118.532 37.4211 118.797 38.9253 119.273C41.1759 119.978 43.2108 121.164 44.8377 122.578C46.4588 123.988 47.6656 125.627 48.2955 127.174C48.756 128.301 48.972 129.399 48.972 130.365C48.972 130.956 48.8903 131.491 48.7504 131.945C48.6511 132.283 48.5112 132.586 48.3596 132.823C48.2429 133.007 48.1205 133.153 47.9925 133.277C47.8059 133.455 47.6193 133.57 47.4387 133.643C47.2521 133.711 47.0596 133.753 46.7797 133.757V136.619C47.2577 136.623 47.7301 136.568 48.179 136.472C48.966 136.303 49.6717 135.982 50.249 135.566C50.6804 135.254 51.0419 134.897 51.3394 134.508C51.7942 133.922 52.1092 133.272 52.3129 132.576C52.5167 131.881 52.6163 131.139 52.6163 130.365C52.6163 129.075 52.3424 127.692 51.7707 126.301C51.2285 124.977 50.4005 123.669 49.3276 122.437C47.7182 120.592 45.5725 118.917 42.9954 117.681C41.7069 117.067 40.3131 116.564 38.8265 116.216C37.3398 115.859 35.7654 115.667 34.1328 115.667C31.958 115.667 29.8821 116.015 27.9872 116.614C25.1355 117.511 22.6748 118.958 20.7217 120.656Z" fill="#294634"/>
<path d="M41.2648 132.453C40.67 132.823 40.3203 133.382 40.3203 133.982V136.293C40.3203 136.888 40.6703 137.451 41.2648 137.822C41.8596 138.188 42.641 138.326 43.3754 138.188L45.3405 137.822V132.448L43.3754 132.082C42.6406 131.945 41.8596 132.082 41.2648 132.453Z" fill="#294634"/>
<path d="M24.8921 132.082L22.9214 132.448V137.822L24.8921 138.188C25.6268 138.326 26.4082 138.188 27.0027 137.822C27.5975 137.451 27.9471 136.888 27.9471 136.293V133.981C27.9471 133.382 27.5971 132.823 27.0027 132.453C26.4082 132.082 25.6268 131.944 24.8921 132.082Z" fill="#294634"/>
<path d="M148.682 125.856C147.93 123.65 146.869 121.673 145.563 119.915C143.271 116.825 140.24 114.422 136.893 112.517C134.38 111.089 131.698 109.922 128.969 108.919C124.882 107.418 120.701 106.264 116.841 105.143C112.981 104.026 109.454 102.932 106.708 101.659C105.705 101.192 104.801 100.707 104.02 100.199C102.854 99.4347 101.944 98.6196 101.285 97.7088C100.627 96.798 100.183 95.7726 100.014 94.4909C99.892 93.5754 99.8394 92.7146 99.8394 91.8908C99.8394 89.4648 100.294 87.3636 100.877 85.2168C102.603 83.6878 104.183 81.8658 105.676 79.687C107.174 77.4945 108.597 74.9354 110.014 71.905C110.923 71.5801 111.839 71.1907 112.731 70.7146C114.772 69.6436 116.707 68.1421 118.322 66.1417C119.932 64.1414 121.226 61.6556 122.112 58.5888C122.357 57.7374 122.474 56.8905 122.474 56.0573C122.48 54.3176 121.955 52.6606 121.074 51.1776C120.462 50.1476 119.686 49.2048 118.783 48.3487C119.243 47.0119 119.803 45.2131 120.304 43.1073C120.993 40.1823 121.564 36.6667 121.564 32.9724C121.564 30.5874 121.325 28.1247 120.707 25.694C120.246 23.872 119.564 22.0638 118.608 20.3336C117.168 17.7288 115.074 15.2799 112.165 13.2567C109.471 11.3844 106.095 9.89229 102.019 8.93546C100.579 7.58049 99.133 6.42679 97.6519 5.44741C96.369 4.60513 95.0573 3.89557 93.7162 3.31432C91.6989 2.43543 89.6114 1.85418 87.4717 1.50145C85.332 1.14872 83.1512 1.02069 80.8887 1.02069C77.7694 1.02069 74.4867 1.26327 70.86 1.54247C69.4897 1.65233 68.3411 1.78504 67.344 1.92244C65.8573 2.13308 64.7434 2.34812 63.8516 2.49021C63.4027 2.55876 63.012 2.61384 62.6272 2.65046C62.2425 2.6824 61.8693 2.70554 61.4436 2.70554C60.8722 2.70554 60.2132 2.66892 59.3505 2.57283C56.7092 2.27078 54.2952 1.80379 52.4003 1.34589C51.4558 1.12147 50.6394 0.897354 49.9979 0.704876C49.6774 0.608783 49.3975 0.521772 49.1758 0.448531C48.9486 0.375289 48.7792 0.306735 48.6803 0.270115L48.6862 0.274802C48.3948 0.155858 48.1149 0.0916983 47.8642 0.0550776C47.6134 0.00908194 47.3921 0 47.1996 0C46.7973 0 46.5114 0.0457027 46.2842 0.0916983C46.0569 0.137694 45.8819 0.192479 45.7244 0.242869C45.4211 0.338962 45.1878 0.439742 44.9546 0.549604C44.5288 0.751165 44.121 0.975283 43.6892 1.23632C42.9369 1.69422 42.1092 2.2617 41.2286 2.92995C39.9109 3.92779 38.4996 5.13628 37.2171 6.45462C36.5756 7.10911 35.9752 7.79582 35.433 8.50539C34.8908 9.21495 34.4127 9.94268 34.0336 10.7073C32.1794 14.493 30.955 17.9811 30.1971 21.1993C29.4333 24.4172 29.1418 27.3654 29.1418 30.0706C29.1418 34.497 29.9288 38.2508 30.6871 41.423C30.6871 41.5742 30.6931 41.716 30.7046 41.8672C30.7281 42.1648 30.7688 42.4716 30.8095 42.7918C30.8737 43.2678 30.9435 43.7577 30.9961 44.1696C31.0252 44.3755 31.0487 44.5586 31.0662 44.7007C31.0722 44.7693 31.0778 44.8334 31.0778 44.8792L31.0838 44.9249V44.9386V44.9433V45.2134L31.8241 47.7997C30.7572 48.7152 29.8359 49.7406 29.1187 50.8668C28.1156 52.4324 27.5212 54.1993 27.5212 56.0669C27.5212 56.891 27.6436 57.7424 27.8884 58.5891C28.4716 60.6351 29.2471 62.4205 30.174 63.977C31.5618 66.316 33.3227 68.1336 35.2699 69.4977C36.7801 70.5597 38.3951 71.3334 39.9927 71.9055C41.4036 74.936 42.8265 77.4904 44.3247 79.6829C45.8174 81.8664 47.3917 83.6837 49.1176 85.2126C49.7009 87.3595 50.1554 89.4653 50.1613 91.8914C50.1613 92.7155 50.1031 93.5759 49.9807 94.4915C49.8639 95.3704 49.6191 96.1303 49.2635 96.817C48.7329 97.8424 47.9574 98.7166 46.9021 99.5454C45.8468 100.36 44.4997 101.125 42.9082 101.834C41.2931 102.553 39.4213 103.226 37.3865 103.867C33.8179 105.002 29.7482 106.073 25.6259 107.369C22.5357 108.335 19.4045 109.438 16.4192 110.816C14.1802 111.85 12.0286 113.05 10.0463 114.473C7.07856 116.606 4.51866 119.266 2.7521 122.553C0.97958 125.844 -0.00594364 129.739 2.69711e-05 134.344C2.69711e-05 134.995 0.175041 135.612 0.460511 136.185C0.722844 136.72 1.09041 137.21 1.52179 137.677C2.33827 138.547 3.3876 139.325 4.67613 140.076C6.93862 141.385 9.94109 142.612 13.8302 143.765C19.6609 145.491 27.4742 147.043 37.5787 148.169C47.6776 149.295 60.0677 150 74.9942 150C87.9441 150 98.9759 149.474 108.264 148.599C115.226 147.94 121.214 147.089 126.293 146.114C130.106 145.386 133.412 144.585 136.246 143.743C138.368 143.111 140.234 142.452 141.855 141.774C143.067 141.266 144.14 140.744 145.091 140.208C146.514 139.398 147.656 138.565 148.525 137.618C148.962 137.146 149.318 136.643 149.58 136.093C149.843 135.553 150 134.958 150 134.344C150 131.194 149.54 128.379 148.682 125.856ZM101.594 104.909L82.8777 127.857L80.7902 116.591L86.1018 112.178L82.6616 107.674L97.1799 101.682C97.5822 102.09 98.0079 102.474 98.4569 102.84C99.4192 103.614 100.475 104.296 101.594 104.909ZM47.7884 25.5337C64.6625 28.4725 97.6583 22.8557 97.6583 22.8557C97.6583 22.8557 98.0139 29.2781 103.64 35.1741C105.856 37.4903 107.681 41.1113 109.051 44.5537C108.684 44.0181 107.821 43.8166 106.532 43.6885C103.64 43.3818 99.3431 43.1849 94.5039 43.368C80.1256 43.922 81.1925 44.9474 75.5484 44.9474C69.9043 44.9474 70.9712 43.922 56.5928 43.368C51.7533 43.1849 47.4563 43.3818 44.5583 43.6885C43.0541 43.8441 42.1092 44.0823 41.8935 44.8695C41.8178 45.1625 41.701 45.492 41.1823 45.6523C42.7742 40.9833 47.2055 35.0185 47.7884 25.5337ZM106.317 51.6994C106.317 51.7636 106.259 58.2363 100.649 60.4471C98.7427 61.2023 96.3518 61.6189 93.9207 61.6236C91.3552 61.6236 89.0114 61.1657 87.1396 60.3006C85.0696 59.3484 83.6762 57.934 82.9941 56.1074C82.8307 55.6817 82.6851 55.256 82.5336 54.8438C82.0903 53.5849 80.8951 50.0878 83.4314 48.5497C85.064 47.5472 90.1308 46.9156 94.9879 46.9156C99.4017 46.9156 103.903 47.3869 105.221 48.4674C106.09 49.1816 106.428 50.4543 106.317 51.6994ZM68.5631 54.8441C68.4116 55.256 68.2598 55.6817 68.1027 56.1077C67.4205 57.934 66.0267 59.3487 63.9628 60.3009C62.0854 61.166 59.7412 61.6239 57.1757 61.6239C54.7442 61.6192 52.3597 61.2026 50.4472 60.4474C44.8382 58.2363 44.7856 51.7636 44.7796 51.6997C44.6688 50.4546 45.0068 49.1819 45.87 48.468C47.1936 47.3875 51.6947 46.9161 56.1088 46.9161C60.9599 46.9161 66.0327 47.5478 67.6709 48.5503C70.2017 50.0881 69.0065 53.5852 68.5631 54.8441ZM49.8292 77.3615C48.3657 75.219 46.9081 72.5551 45.4095 69.2317L44.9139 68.1468L43.5377 67.7487C42.5813 67.4739 41.6484 67.117 40.7565 66.6453C39.4098 65.9358 38.1328 64.9655 36.9607 63.5188C35.7886 62.0721 34.7393 60.1312 33.9814 57.5083C33.8355 57.0094 33.7773 56.5333 33.7773 56.0663C33.7773 55.0134 34.0978 54.0156 34.7102 53.0634C35.2117 52.2716 35.9114 51.5254 36.7626 50.8477C38.197 52.5508 39.3863 53.901 39.818 54.2397C40.6401 54.8851 41.0483 54.2626 41.1125 53.0541C41.6196 55.7412 43.2466 60.177 48.5 62.3695C56.0625 65.5236 67.3507 64.3423 71.1813 57.3205C72.9131 54.1527 72.9362 51.0584 75.5484 51.0584C78.1545 51.0584 78.184 54.153 79.9155 57.3205C83.752 64.3426 95.0402 65.5236 102.603 62.3695C110.159 59.2154 110.212 51.4061 110.212 50.8568C110.212 50.5729 110.556 50.3579 111.046 50.3166C111.687 52.4359 112.019 53.8735 112.019 53.8735C112.019 53.8735 112.742 52.7886 113.827 51.342C114.474 51.937 115.01 52.578 115.407 53.2463C115.937 54.1436 116.223 55.082 116.223 56.057C116.223 56.5284 116.159 57.0091 116.013 57.5036C115.512 59.2524 114.876 60.6987 114.165 61.8981C113.092 63.6925 111.856 64.9286 110.562 65.835C109.273 66.7414 107.897 67.3318 106.468 67.7484L105.086 68.1421L104.597 69.2317C103.098 72.5551 101.634 75.2237 100.171 77.3615C98.7016 79.5039 97.2441 81.1152 95.7283 82.3694L95.1279 82.8683L94.9413 83.5322C94.2647 85.9811 93.5886 88.6866 93.5886 91.8908C93.5886 92.8796 93.6527 93.9096 93.7927 94.9945C93.9617 96.2671 94.3349 97.4618 94.889 98.5605C94.9126 98.6109 94.9473 98.6656 94.9708 98.7116L75.9801 106.553L54.9315 98.8857C55.5786 97.6953 56.0159 96.3954 56.2025 94.9948C56.3484 93.9099 56.4066 92.8799 56.4066 91.8911C56.4126 88.6866 55.736 85.9767 55.0539 83.5278L54.8673 82.8639L54.2669 82.3694C52.7563 81.1059 51.2928 79.5036 49.8292 77.3615ZM49.6602 104.177C50.7565 103.486 51.7652 102.712 52.6571 101.842L68.709 107.693L65.2804 112.179L70.5864 116.592L68.6273 127.198L48.15 105.047C48.6691 104.767 49.1762 104.479 49.6602 104.177ZM143.744 134.325C143.738 134.352 143.697 134.444 143.586 134.59C143.376 134.874 142.887 135.332 142.059 135.854C141.341 136.307 140.374 136.815 139.155 137.337C137.015 138.257 134.117 139.214 130.444 140.12C124.928 141.484 117.646 142.729 108.457 143.636C99.2674 144.533 88.1717 145.092 74.9942 145.092C62.2716 145.092 51.485 144.57 42.4824 143.723C35.7304 143.087 29.9814 142.263 25.1885 141.347C21.5853 140.656 18.5182 139.91 15.9703 139.15C14.0519 138.582 12.4252 138.006 11.0901 137.443C10.087 137.021 9.24178 136.605 8.55367 136.22C7.52747 135.643 6.87443 135.117 6.54792 134.756C6.38447 134.581 6.30312 134.444 6.27402 134.38C6.25648 134.353 6.25051 134.335 6.25051 134.325C6.25051 131.579 6.64718 129.226 7.33492 127.184C7.93534 125.399 8.76339 123.847 9.77205 122.474C11.533 120.071 13.8477 118.184 16.5998 116.596C18.6522 115.401 20.9554 114.38 23.3925 113.469C26.127 112.449 29.0306 111.57 31.9461 110.723V115.667H34.1325H36.3189V109.455C39.106 108.636 41.823 107.793 44.3534 106.786L76.7078 141.782L104.975 107.134C105.062 107.239 105.15 107.345 105.232 107.446C106.409 108.933 107.231 110.554 107.78 112.389C108.322 114.22 108.573 116.271 108.573 118.555C108.573 123.847 108.573 128.457 108.573 131.56H98.4162V134.998H123.418V131.56H113.261C113.261 128.457 113.261 123.847 113.261 118.555C113.261 115.228 112.777 112.197 111.576 109.432C111.471 109.194 111.36 108.956 111.243 108.723C114.66 109.78 118.234 110.732 121.698 111.812C124.666 112.733 127.546 113.74 130.164 114.934C132.135 115.832 133.96 116.839 135.581 117.983C138.012 119.718 140.006 121.764 141.441 124.387C142.869 127.005 143.744 130.228 143.744 134.325Z" fill="#294634"/>
</svg>
