<svg width="120" height="138" viewBox="0 0 120 138" fill="none" xmlns="http://www.w3.org/2000/svg">
<path opacity="0.4" d="M13.85 57.3333C11.7 57.3333 10 55.384 10 52.9187V39.6747C10 24.1373 21.05 11.4667 34.6 11.4667H46.15C48.3 11.4667 50 13.416 50 15.8813C50 18.3467 48.3 20.296 46.15 20.296H34.6C25.25 20.296 17.7 29.0107 17.7 39.6747V52.9187C17.7 55.384 15.95 57.3333 13.85 57.3333Z" fill="#294634"/>
<path opacity="0.4" d="M106.15 57.3333C104.05 57.3333 102.3 55.384 102.3 52.9187V39.6747C102.3 28.9533 94.7 20.296 85.4 20.296H73.85C71.7 20.296 70 18.2893 70 15.8813C70 13.4733 71.7 11.4667 73.85 11.4667H85.4C98.95 11.4667 110 24.1373 110 39.6747V52.9187C110 55.384 108.3 57.3333 106.15 57.3333Z" fill="#294634"/>
<path d="M85.3995 126.133H78.4495C76.3495 126.133 74.5995 124.183 74.5995 121.718C74.5995 119.31 76.2995 117.303 78.4495 117.303H85.3995C94.7495 117.303 102.299 108.589 102.299 97.9248V90.0128C102.299 87.6048 103.999 85.5981 106.149 85.5981C108.249 85.5981 109.999 87.5475 109.999 90.0128V97.9248C109.999 113.462 98.9495 126.133 85.3995 126.133Z" fill="#294634"/>
<path d="M46.15 126.133H34.6C21.05 126.133 10 113.463 10 97.9254V84.6814C10 82.2161 11.7 80.2667 13.85 80.2667C16 80.2667 17.7 82.2161 17.7 84.6814V97.9254C17.7 108.647 25.3 117.304 34.6 117.304H46.15C48.25 117.304 50 119.253 50 121.719C50 124.184 48.3 126.133 46.15 126.133Z" fill="#294634"/>
<path d="M92.2975 64.3854H85.4975H34.4977H27.6977C25.5477 64.3854 23.8477 66.392 23.8477 68.8C23.8477 71.208 25.5477 73.2147 27.6977 73.2147H34.4977H85.4975H92.2975C94.4475 73.2147 96.1475 71.208 96.1475 68.8C96.1475 66.392 94.4475 64.3854 92.2975 64.3854Z" fill="#294634"/>
<path d="M34.502 79.9226V81.8146C34.502 91.332 41.202 99.0146 49.502 99.0146H70.502C78.802 99.0146 85.502 91.332 85.502 81.8146V79.9226C85.502 79.2346 85.052 78.7186 84.452 78.7186H35.552C34.952 78.7186 34.502 79.2346 34.502 79.9226Z" fill="#294634"/>
<path opacity="0.4" d="M34.502 57.6773V55.7852C34.502 46.2679 41.202 38.5852 49.502 38.5852H70.502C78.802 38.5852 85.502 46.2679 85.502 55.7852V57.6773C85.502 58.3653 85.052 58.8813 84.452 58.8813H35.552C34.952 58.8813 34.502 58.3653 34.502 57.6773Z" fill="#294634"/>
</svg>
