<svg width="108" height="108" viewBox="0 0 108 108" fill="none" xmlns="http://www.w3.org/2000/svg">
<g filter="url(#filter0_d_4_5769)">
<circle cx="54" cy="50" r="49.5" stroke="#294634"/>
<path d="M44 80V57.1761C44 55.0752 45.7909 53.3721 48 53.3721H60C62.2091 53.3721 64 55.0752 64 57.1761V80M51.6819 20.7039L25.6819 38.2868C24.6267 39.0003 24 40.1555 24 41.3868V74.294C24 77.4453 26.6863 80 30 80H78C81.3137 80 84 77.4453 84 74.294V41.3868C84 40.1555 83.3733 39.0004 82.3181 38.2868L56.3181 20.7039C54.9303 19.7654 53.0697 19.7654 51.6819 20.7039Z" stroke="#294634" stroke-width="2" stroke-linecap="round"/>
</g>
<defs>
<filter id="filter0_d_4_5769" x="0" y="0" width="108" height="108" filterUnits="userSpaceOnUse" color-interpolation-filters="sRGB">
<feFlood flood-opacity="0" result="BackgroundImageFix"/>
<feColorMatrix in="SourceAlpha" type="matrix" values="0 0 0 0 0 0 0 0 0 0 0 0 0 0 0 0 0 0 127 0" result="hardAlpha"/>
<feOffset dy="4"/>
<feGaussianBlur stdDeviation="2"/>
<feComposite in2="hardAlpha" operator="out"/>
<feColorMatrix type="matrix" values="0 0 0 0 0 0 0 0 0 0 0 0 0 0 0 0 0 0 0.25 0"/>
<feBlend mode="normal" in2="BackgroundImageFix" result="effect1_dropShadow_4_5769"/>
<feBlend mode="normal" in="SourceGraphic" in2="effect1_dropShadow_4_5769" result="shape"/>
</filter>
</defs>
</svg>
