<svg width="106" height="104" viewBox="0 0 106 104" fill="none" xmlns="http://www.w3.org/2000/svg">
<path d="M103 101V95.5556C103 89.5416 97.4037 84.6667 90.5 84.6667H65.5C58.5963 84.6667 53 89.5416 53 95.5556V101M34.25 46.5556H3M71.75 13.8889H90.5C97.4037 13.8889 103 18.764 103 24.7778V35.6667M15.5 13.8889C8.59644 13.8889 3 18.764 3 24.7778V90.1111C3 96.125 8.59644 101 15.5 101H34.25M71.75 3V24.7778M34.25 3V24.7778M34.25 13.8889H53M90.5 57.4444C90.5 63.4584 84.9037 68.3333 78 68.3333C71.0963 68.3333 65.5 63.4584 65.5 57.4444C65.5 51.4305 71.0963 46.5556 78 46.5556C84.9037 46.5556 90.5 51.4305 90.5 57.4444Z" stroke="#294634" stroke-width="5" stroke-linecap="round"/>
</svg>
