<svg width="102" height="109" viewBox="0 0 102 109" fill="none" xmlns="http://www.w3.org/2000/svg">
<path d="M16.4368 35.7526C18.0157 35.5864 18.0988 35.6279 18.3481 37.0407C21.049 51.5422 43.1959 49.0075 45.5644 33.9243C46.063 30.808 46.9356 29.5614 48.7223 29.5614C49.4287 29.5614 49.7195 29.8107 49.7195 30.3509C49.7195 40.4479 66.0909 47.3455 72.656 39.9909C74.9829 37.4147 77.6426 32.5947 77.8919 30.5586L78.0996 28.6889L80.5092 28.4395C84.7059 27.9409 84.6648 27.7332 78.9307 18.9242C68.9583 3.63327 61.2293 -2.641 56.9495 1.01553C55.6614 2.13741 55.7861 2.09587 55.4952 11.3203C55.4952 11.9436 55.9111 12.4837 56.4928 12.65C59.0275 13.2732 61.9357 11.1541 59.775 10.1984C58.8609 9.78289 58.8193 9.65825 59.0686 6.8743C59.4426 2.80223 59.7335 2.67759 62.4759 5.62776C68.7917 12.4422 72.9057 16.2234 74.6509 19.5475C75.1079 20.3785 75.0664 20.5032 74.6509 20.0461C74.1523 19.5891 71.3679 19.2982 71.3679 19.7137C71.3679 19.7968 71.9496 20.8356 72.656 21.9575C79.4289 32.8855 67.1712 46.9715 58.4869 38.2457C51.9633 31.7221 57.6978 19.0073 67.1716 19.0073C69.7893 19.0073 70.2464 18.5503 68.5428 17.6777C63.8059 15.2261 55.5368 19.0904 51.8802 25.4894L50.6756 27.6085L47.767 27.6916C46.105 27.7332 44.8584 27.6085 44.8584 27.3592C44.8584 26.5282 42.7809 24.9077 41.7421 24.9077C40.4124 24.9077 40.412 25.3232 41.7001 27.193C47.268 35.3786 36.4646 47.5117 27.7388 42.8579C16.7692 36.9992 24.9968 19.2566 36.9636 23.0378C40.4124 24.1182 40.9522 24.1182 40.5366 23.0378C37.6696 15.6001 22.9192 20.8356 19.512 30.4756C18.5978 33.0933 18.5143 33.1764 17.1016 33.1764C15.8966 33.1764 15.6888 33.0517 15.9381 32.4285C16.1044 32.013 17.1016 28.0656 18.2235 23.578C21.7138 9.45049 25.9936 0.433802 27.1155 5.00448C27.8219 7.91307 27.905 13.6472 27.2402 13.6472C25.495 13.6472 25.495 16.3896 27.2817 16.8051C31.1045 17.7608 32.4341 6.9574 28.9022 3.75793C24.9548 0.184498 20.2184 3.67481 17.6422 12.1929C17.0189 14.2704 15.8551 17.8854 15.0656 20.2539C10.9935 32.4285 11.3675 36.2097 16.4368 35.7526Z" fill="#294634"/>
<path d="M99.1237 73.0655C95.3426 63.9657 93.8467 66.7497 95.9243 71.7358C97.0877 74.5613 97.2539 75.2677 96.7138 75.06C87.7802 71.4865 69.7053 77.1791 58.7357 87.1099L53.5002 91.8468C53.2509 87.6501 53.1262 85.2401 52.9185 83.9104C52.7523 82.747 50.8829 82.4146 50.6751 83.7027C50.4258 85.2401 50.4674 87.9825 50.4674 92.3454L49.1788 90.8911C42.7799 83.6196 24.0821 81.5835 6.42231 86.2789C3.47215 87.0684 3.47215 87.8578 6.33919 77.5115C10.2035 63.4255 11.3254 56.5695 12.0733 53.8271C12.4057 52.5806 25.9931 52.3313 31.1039 53.4532C35.8823 54.492 46.478 59.2704 48.0154 61.0155C48.514 61.5973 48.9295 64.0073 49.5944 70.1153C50.5916 79.2567 50.7167 78.6334 51.5061 78.9658C52.9189 79.506 52.2121 71.4865 51.6719 61.3895L57.1156 57.4837C69.9966 48.2592 81.2151 49.1318 83.2095 48.7578L85.8692 52.7883C91.7696 61.6804 92.6417 65.0045 93.4312 63.01C93.7221 62.2621 86.2843 47.1789 85.1209 46.1401C82.9187 44.1872 64.5529 43.5223 52.0043 55.8632C48.7218 59.1042 49.0961 58.9795 47.351 57.6499C36.0905 49.0487 10.8683 45.8908 9.45556 52.913C8.58298 57.1928 2.59957 74.3536 0.438897 85.6556C-0.101285 88.5642 -0.142832 89.3121 0.314231 90.2263C0.854413 91.3066 1.14526 91.3897 2.89042 91.0573C3.63836 90.9326 3.763 91.2235 4.05388 94.2152C4.38627 97.3731 5.21731 99.2845 6.04834 98.7859C6.63007 98.4535 6.46386 99.2014 5.79904 100.074C4.22006 102.152 5.96525 106.348 8.33368 106.182C9.37247 106.099 9.66332 106.307 10.0373 107.345C10.6606 109.049 11.4501 109.215 13.1952 108.01C15.0235 106.764 18.306 104.728 23.7908 103.44C29.2757 102.152 46.5195 103.44 48.2231 104.229C49.2619 104.728 49.8021 104.811 50.0099 104.478C50.1761 104.229 51.5888 103.897 53.2093 103.772C58.6526 103.315 67.3372 102.318 71.2431 101.653C77.0603 100.656 87.9884 100.988 91.6033 102.276C95.6338 103.689 96.8804 102.235 94.1795 99.2845C93.2239 98.2457 93.1819 98.1211 93.9298 98.3288C99.7886 99.8662 100.869 97.8302 97.4206 91.6805C95.8832 88.9382 95.8827 89.0628 98.085 89.0628C100.703 89.0628 100.578 88.0656 97.5037 83.4118C94.7197 79.2151 94.7197 79.1735 98.0438 80.2955C102.033 81.6251 102.199 80.4616 99.1237 73.0655ZM21.8379 97.3731C16.8102 97.8302 12.1564 100.282 11.6994 100.448C10.993 100.656 10.5359 100.199 10.8268 99.1183C10.993 98.4535 11.2007 97.664 11.2423 97.3316C11.5747 95.1709 25.6191 93.0518 32.2674 94.1737C38.791 95.254 39.7466 95.7111 45.3561 97.7055C35.7992 97.0407 27.1981 96.8745 21.8379 97.3731ZM49.4697 95.0878C28.5277 89.1459 20.3009 88.9382 9.12317 93.9659C7.62729 94.6723 6.33919 95.1709 6.29764 95.0878C6.21455 94.9631 5.96525 92.6362 5.67437 90.2678C15.7714 87.8163 23.8324 85.5725 33.7217 86.8606C36.6718 87.2346 40.6608 88.7304 43.694 90.5587C48.888 93.7166 51.298 95.628 49.4697 95.0878ZM61.6443 89.7277C73.1541 79.7968 81.2566 76.7636 90.5226 78.9658C91.4783 79.1736 95.2595 83.9104 94.8439 84.3259C94.7608 84.409 93.8883 84.2844 92.891 84.0351C85.1209 82.3315 80.7168 82.9963 70.2874 87.5254C67.545 88.7304 64.6776 89.9354 63.9296 90.2263C60.8548 91.4313 53.3755 96.8745 61.6443 89.7277ZM92.3508 92.5116C87.3231 91.5559 81.5474 91.7221 76.3535 92.9271C72.4477 93.8413 60.5639 96.2928 60.19 95.9604C59.9822 95.7942 65.8829 92.8025 68.8331 91.2235C74.8165 88.024 82.0045 86.9437 90.5226 87.9409C92.3508 88.1487 92.6002 88.3565 94.1376 90.5171C96.1736 93.3842 96.2567 93.2595 92.3508 92.5116Z" fill="#294634"/>
</svg>
