<svg width="150" height="150" viewBox="0 0 150 150" fill="none" xmlns="http://www.w3.org/2000/svg">
<path d="M68.0771 91.7874V96.7334H81.828V91.8018C79.5747 92.0776 77.291 92.2284 74.9938 92.2284C72.6657 92.2281 70.36 92.07 68.0771 91.7874Z" fill="#294634"/>
<path d="M139.368 84.7255L111.18 79.3266C109.36 80.7911 107.457 82.1254 105.487 83.3572L137.19 89.4294C140.279 90.0211 142.36 91.8114 142.36 93.8841V101.826C142.36 124.247 115.664 142.735 81.6185 144.877L89.5647 132.824L81.9243 100.004H68.0766L60.4362 132.824L68.382 144.877C34.3367 142.735 7.6404 124.247 7.6404 101.826V93.8841C7.6404 91.8117 9.72237 90.0214 12.8186 89.4294L44.5061 83.3597C42.5363 82.1278 40.6337 80.793 38.8055 79.3291L10.6317 84.7252C4.32042 85.9329 0 89.6571 0 93.8838V101.825C0 128.431 33.5758 150 75 150C116.425 150 150 128.431 150 101.825V93.8838C150 89.6571 145.681 85.9332 139.368 84.7255Z" fill="#294634"/>
<path d="M34.2795 65.4093C42.0379 76.2356 56.3086 87.3205 74.2783 87.3205C92.2324 87.3205 106.503 76.2524 114.262 65.4332C120.414 64.6493 126.248 60.9255 128.975 55.8407C132.341 49.5215 130.006 43.3415 123.752 40.8254C123.758 40.7224 123.81 40.624 123.788 40.5186C123.685 39.9866 123.25 39.5551 122.631 39.2702C124.517 37.346 125.939 34.3098 125.829 29.5701C125.785 27.828 125.549 25.8701 125.033 23.6297C120.907 5.77735 76.629 -8.26717 57.1339 5.63608C57.1339 5.63608 42.1999 3.69263 31.3545 13.6612C26.9861 17.6749 20.7088 25.712 21.2539 32.4574C21.4678 35.1078 22.7053 37.5639 25.5714 39.4905C25.1733 39.7684 24.8634 40.1089 24.7828 40.5186C24.7611 40.6265 24.8125 40.7245 24.8196 40.8278C21.9535 41.9901 19.7662 43.9357 18.7411 46.4593C17.585 49.3181 17.8865 52.6512 19.5961 55.8407C22.2926 60.8776 28.0319 64.5798 34.2795 65.4093ZM59.9044 23.63C59.9044 23.63 99.8805 41.2164 103.97 30.1744C103.97 30.1744 111.152 33.5697 113.909 40.4402C110.984 41.5161 108.64 42.9419 106.909 44.2262C104.331 41.0825 99.2912 38.9138 93.4417 38.9138C87.6873 38.9138 82.7216 41.0129 80.0986 44.073C76.3788 43.1865 72.1937 43.1865 68.4726 44.073C65.8505 41.0129 60.8847 38.9138 55.1304 38.9138C49.2809 38.9138 44.2411 41.0825 41.6619 44.2262C39.9604 42.9683 37.6907 41.5639 34.8401 40.4953C37.1456 36.0139 44.0343 25.849 59.9044 23.63ZM85.7347 46.3732C85.5062 46.227 85.2414 46.124 84.9984 45.9874C86.6264 43.9986 89.7432 42.5941 93.4417 42.5941C98.7678 42.5941 103.107 45.4146 103.107 48.882C103.107 52.3497 98.7673 55.1702 93.4417 55.1702C88.4246 55.1702 84.4236 52.6393 83.9521 49.4547C84.5923 49.4189 85.2339 49.2942 85.7276 48.9758C86.8323 48.2569 86.8399 47.0921 85.7347 46.3732ZM62.8435 48.9758C63.3377 49.2942 63.9784 49.4189 64.6195 49.4547C64.1555 52.6393 60.1475 55.1702 55.1299 55.1702C49.8028 55.1702 45.4632 52.3497 45.4632 48.882C45.4632 45.4146 49.8028 42.5941 55.1299 42.5941C58.8284 42.5941 61.9451 43.9986 63.5732 45.9874C63.3297 46.124 63.0645 46.227 62.8364 46.3732C61.7313 47.0921 61.7379 48.2569 62.8435 48.9758ZM39.8346 48.7024C39.827 48.7646 39.8049 48.8198 39.8049 48.882C39.8049 54.3789 46.6795 58.8508 55.1294 58.8508C63.5798 58.8508 70.4535 54.3793 70.4535 48.882C70.4535 48.4223 70.3357 47.9811 70.2472 47.538C72.8108 46.8739 75.7575 46.8739 78.3226 47.538C78.234 47.9811 78.1158 48.4223 78.1158 48.882C78.1158 54.3789 84.9904 58.8508 93.4408 58.8508C101.891 58.8508 108.765 54.3793 108.765 48.882C108.765 48.8198 108.743 48.7646 108.735 48.7024C109.576 47.8588 112.183 45.4986 115.919 43.9504C116.501 44.2979 117.238 44.5471 118.078 44.5998C118.306 44.6142 118.77 44.6454 119.013 44.6982C122.351 45.4554 124.34 49.5577 121.85 54.2285C119.603 58.4172 115.035 60.6766 111.792 60.6766C111.763 60.6766 111.742 60.6766 111.719 60.6766C110.223 60.6766 108.86 61.2543 108.264 62.1506C101.699 71.9466 89.322 82.4134 74.2773 82.4134C59.2326 82.4134 46.8552 71.9466 40.2906 62.1506C39.6937 61.2546 38.1759 60.6766 36.6726 60.6766C33.5192 60.6766 28.9585 58.4172 26.7185 54.2285C25.5182 51.9807 25.268 49.6061 26.0336 47.7126C26.4095 46.7997 27.3526 45.1943 29.5479 44.6982C29.7844 44.6454 30.2479 44.6142 30.4769 44.5998C31.3239 44.5471 32.0611 44.2979 32.6429 43.9455C36.3867 45.4937 38.9876 47.8588 39.8346 48.7024Z" fill="#294634"/>
</svg>
