<svg width="100" height="100" viewBox="0 0 100 100" fill="none" xmlns="http://www.w3.org/2000/svg">
<path d="M96.7742 83.871V27.4194C96.7742 22.9726 93.1565 19.3548 88.7097 19.3548H67.7419V4.83871C67.7419 2.17097 65.571 0 62.9032 0H20.9677C18.3 0 16.129 2.17097 16.129 4.83871V19.3548H11.2903C6.84355 19.3548 3.22581 22.9726 3.22581 27.4194V83.871H0V91.9355C0 96.3823 3.61774 100 8.06452 100H91.9355C96.3823 100 100 96.3823 100 91.9355V83.871H96.7742ZM88.7097 22.5806C91.3774 22.5806 93.5484 24.7516 93.5484 27.4194V83.871H90.3226V29.0323C90.3226 27.2532 88.8758 25.8065 87.0968 25.8065H67.7419V22.5806H88.7097ZM35.4839 87.0968H64.5161V88.7097C64.5161 89.6 63.7919 90.3226 62.9032 90.3226H37.0968C36.2081 90.3226 35.4839 89.6 35.4839 88.7097V87.0968ZM12.9032 83.871V29.0323H16.129V30.6452C16.129 33.3129 18.3 35.4839 20.9677 35.4839H32.5516C32.3694 35.9968 32.2581 36.5355 32.2581 37.0968V62.9032C32.2581 65.571 34.429 67.7419 37.0968 67.7419H51.6129V77.1048L66.5919 67.7419H79.0323C81.7 67.7419 83.871 65.571 83.871 62.9032V37.0968C83.871 34.429 81.7 32.2581 79.0323 32.2581H67.4452C67.6258 31.7516 67.7419 31.2129 67.7419 30.6452V29.0323H87.0968V83.871H12.9032ZM79.0323 35.4839C79.921 35.4839 80.6452 36.2065 80.6452 37.0968V62.9032C80.6452 63.7935 79.921 64.5161 79.0323 64.5161H65.6661L54.8387 71.2823V64.5161H37.0968C36.2081 64.5161 35.4839 63.7935 35.4839 62.9032V37.0968C35.4839 36.9984 35.5226 36.9097 35.5387 36.8161L48.3871 44.8468V35.4839H61.3935H62.9032H79.0323ZM19.3548 4.83871C19.3548 3.94839 20.079 3.22581 20.9677 3.22581H62.9032C63.7919 3.22581 64.5161 3.94839 64.5161 4.83871V30.6452C64.5161 31.5355 63.7919 32.2581 62.9032 32.2581H61.3935H45.1613V39.0242L34.3339 32.2581H20.9677C20.079 32.2581 19.3548 31.5355 19.3548 30.6452V4.83871ZM6.45161 27.4194C6.45161 24.7516 8.62258 22.5806 11.2903 22.5806H16.129V25.8065H12.9032C11.1242 25.8065 9.67742 27.2532 9.67742 29.0323V83.871H6.45161V27.4194ZM96.7742 91.9355C96.7742 94.6032 94.6032 96.7742 91.9355 96.7742H8.06452C5.39677 96.7742 3.22581 94.6032 3.22581 91.9355V87.0968H32.2581V88.7097C32.2581 91.3774 34.429 93.5484 37.0968 93.5484H62.9032C65.571 93.5484 67.7419 91.3774 67.7419 88.7097V87.0968H96.7742V91.9355Z" fill="#294634"/>
<path d="M12.9032 90.3226H9.67743V93.5484H12.9032V90.3226Z" fill="#294634"/>
<path d="M19.3548 90.3226H16.129V93.5484H19.3548V90.3226Z" fill="#294634"/>
<path d="M25.8064 90.3226H22.5806V93.5484H25.8064V90.3226Z" fill="#294634"/>
<path d="M61.2903 6.45166H22.5806V9.67747H61.2903V6.45166Z" fill="#294634"/>
<path d="M61.2903 12.9032H22.5806V16.129H61.2903V12.9032Z" fill="#294634"/>
<path d="M61.2903 19.3549H58.0645V22.5807H61.2903V19.3549Z" fill="#294634"/>
<path d="M54.8387 19.3549H22.5806V22.5807H54.8387V19.3549Z" fill="#294634"/>
<path d="M43.5484 25.8064H40.3226V29.0322H43.5484V25.8064Z" fill="#294634"/>
<path d="M53.2258 25.8064H50V29.0322H53.2258V25.8064Z" fill="#294634"/>
<path d="M33.8709 25.8064H30.6451V29.0322H33.8709V25.8064Z" fill="#294634"/>
<path d="M77.4194 38.7097H51.6129V41.9355H77.4194V38.7097Z" fill="#294634"/>
<path d="M77.4194 45.1613H51.6129V48.3871H77.4194V45.1613Z" fill="#294634"/>
<path d="M77.4193 51.6129H74.1935V54.8387H77.4193V51.6129Z" fill="#294634"/>
<path d="M70.9677 51.6129H38.7097V54.8387H70.9677V51.6129Z" fill="#294634"/>
<path d="M59.6774 58.0646H56.4516V61.2904H59.6774V58.0646Z" fill="#294634"/>
<path d="M69.3548 58.0646H66.129V61.2904H69.3548V58.0646Z" fill="#294634"/>
<path d="M50 58.0646H46.7742V61.2904H50V58.0646Z" fill="#294634"/>
</svg>
