<svg width="225" height="92" viewBox="0 0 225 92" fill="none" xmlns="http://www.w3.org/2000/svg">
<g clip-path="url(#clip0_156_745)">
<rect x="-45.5" y="-21.5" width="307" height="130" stroke="#294634"/>
<mask id="mask0_156_745" style="mask-type:luminance" maskUnits="userSpaceOnUse" x="176" y="52" width="35" height="33">
<path d="M211 52H176V85H211V52Z" fill="white"/>
</mask>
<g mask="url(#mask0_156_745)">
<path d="M189.75 76.25L195.583 81.75L207.856 69.9495C210.937 66.9872 210.937 62.1842 207.856 59.2218C204.775 56.2594 199.78 56.2594 196.699 59.2218C196.266 59.6378 195.583 60.5686 195.583 60.5686C195.583 60.5686 194.9 59.6378 194.468 59.2218C191.387 56.2594 186.392 56.2594 183.311 59.2218C181.594 60.8721 180.834 63.0937 181.03 65.25" stroke="#294634" stroke-linecap="round" stroke-linejoin="round"/>
<path d="M186 71.5H192L194 66L196.237 71H202.055" stroke="#294634" stroke-linecap="round" stroke-linejoin="round"/>
</g>
</g>
<path d="M36.7991 71.5H95.1102L100.478 52L104.772 91L111.213 61.75L115.711 81.25L118.727 71.5H190.304" stroke="#294634" stroke-linecap="round" stroke-linejoin="round"/>
<path d="M94.56 26.72C95.1733 26.72 95.6133 26.8533 95.88 27.12C96.1733 27.3867 96.32 27.7333 96.32 28.16C96.32 28.8533 96.1067 29.4667 95.68 30C95.28 30.5333 94.64 30.8133 93.76 30.84C91.6267 30.8933 89.7333 30.7333 88.08 30.36C86.1867 34.3333 83.8933 37.64 81.2 40.28C78.5333 42.8933 75.8533 44.2 73.16 44.2C70.3867 44.2 68.32 42.5867 66.96 39.36C65.6 36.1333 64.92 31.7733 64.92 26.28C64.92 21.5867 65.2533 17.3733 65.92 13.64C66.16 12.2533 66.4933 11.32 66.92 10.84C67.3733 10.3333 68.1333 10.08 69.2 10.08C70.96 10.08 71.84 10.84 71.84 12.36C71.84 12.52 71.8133 12.8133 71.76 13.24C70.96 18.04 70.56 22.3867 70.56 26.28C70.56 30.36 70.8933 33.4667 71.56 35.6C72.2533 37.7067 73.28 38.76 74.64 38.76C76.0267 38.76 77.5333 37.8 79.16 35.88C80.7867 33.96 82.28 31.5467 83.64 28.64C82.0133 27.6267 80.7867 26.32 79.96 24.72C79.1333 23.0933 78.72 21.2267 78.72 19.12C78.72 17.0133 79.04 15.24 79.68 13.8C80.3467 12.3333 81.24 11.24 82.36 10.52C83.5067 9.8 84.7733 9.44 86.16 9.44C87.8667 9.44 89.2133 10.0533 90.2 11.28C91.2133 12.5067 91.72 14.1867 91.72 16.32C91.72 19.3867 91.0533 22.7333 89.72 26.36C91.1333 26.6 92.7467 26.72 94.56 26.72ZM82.76 18.84C82.76 21.4533 83.6 23.3867 85.28 24.64C86.32 21.6533 86.84 19.1867 86.84 17.24C86.84 16.12 86.6933 15.3067 86.4 14.8C86.1067 14.2667 85.7067 14 85.2 14C84.48 14 83.8933 14.4267 83.44 15.28C82.9867 16.1067 82.76 17.2933 82.76 18.84ZM97.6678 22.72C96.5478 22.72 95.7078 22.4667 95.1478 21.96C94.5878 21.4267 94.3078 20.6933 94.3078 19.76C94.3078 18.8267 94.6678 18.0533 95.3878 17.44C96.1345 16.8 97.0545 16.48 98.1478 16.48C99.1345 16.48 99.9345 16.72 100.548 17.2C101.161 17.68 101.468 18.36 101.468 19.24C101.468 20.3067 101.121 21.16 100.428 21.8C99.7345 22.4133 98.8145 22.72 97.6678 22.72ZM97.3478 44.2C95.6145 44.2 94.3478 43.5867 93.5478 42.36C92.7745 41.1333 92.3878 39.5067 92.3878 37.48C92.3878 36.28 92.5345 34.7467 92.8278 32.88C93.1478 30.9867 93.5478 29.2267 94.0278 27.6C94.2678 26.7467 94.5878 26.16 94.9878 25.84C95.3878 25.52 96.0278 25.36 96.9078 25.36C98.2678 25.36 98.9478 25.8133 98.9478 26.72C98.9478 27.3867 98.6945 28.9333 98.1878 31.36C97.5478 34.2933 97.2278 36.28 97.2278 37.32C97.2278 38.12 97.3345 38.7333 97.5478 39.16C97.7611 39.5867 98.1211 39.8 98.6278 39.8C99.1078 39.8 99.7078 39.4667 100.428 38.8C101.148 38.1333 102.108 37.08 103.308 35.64C103.628 35.2667 103.988 35.08 104.388 35.08C104.734 35.08 105.001 35.24 105.188 35.56C105.401 35.88 105.508 36.32 105.508 36.88C105.508 37.9467 105.254 38.7733 104.748 39.36C102.108 42.5867 99.6411 44.2 97.3478 44.2ZM120.112 35.08C120.458 35.08 120.725 35.24 120.912 35.56C121.125 35.88 121.232 36.32 121.232 36.88C121.232 37.9467 120.978 38.7733 120.472 39.36C119.325 40.7733 118.072 41.9333 116.712 42.84C115.352 43.7467 113.792 44.2 112.032 44.2C106.592 44.2 103.872 40.3733 103.872 32.72C103.872 31.5467 103.912 30.36 103.992 29.16H102.432C101.632 29.16 101.085 29.0133 100.792 28.72C100.525 28.4267 100.392 27.96 100.392 27.32C100.392 25.8267 100.992 25.08 102.192 25.08H104.472C104.925 22.1467 105.618 19.4667 106.552 17.04C107.485 14.6133 108.605 12.68 109.912 11.24C111.245 9.8 112.672 9.08 114.192 9.08C115.312 9.08 116.192 9.57333 116.832 10.56C117.472 11.5467 117.792 12.7867 117.792 14.28C117.792 18.4133 116.058 22.0133 112.592 25.08H117.072C117.498 25.08 117.805 25.1733 117.992 25.36C118.178 25.5467 118.272 25.8933 118.272 26.4C118.272 28.24 116.765 29.16 113.752 29.16H108.872C108.818 30.4933 108.792 31.5333 108.792 32.28C108.792 35.0533 109.112 37 109.752 38.12C110.418 39.24 111.458 39.8 112.872 39.8C114.018 39.8 115.032 39.4533 115.912 38.76C116.792 38.0667 117.832 37.0267 119.032 35.64C119.352 35.2667 119.712 35.08 120.112 35.08ZM113.112 12.92C112.712 12.92 112.258 13.4267 111.752 14.44C111.272 15.4267 110.805 16.8133 110.352 18.6C109.925 20.36 109.565 22.32 109.272 24.48C110.845 23.12 112.018 21.6 112.792 19.92C113.592 18.2133 113.992 16.6667 113.992 15.28C113.992 13.7067 113.698 12.92 113.112 12.92ZM122.895 44.2C121.241 44.2 119.921 43.6 118.935 42.4C117.948 41.2 117.455 39.6267 117.455 37.68C117.455 35.5467 117.948 33.5333 118.935 31.64C119.921 29.72 121.228 28.1867 122.855 27.04C124.508 25.8667 126.255 25.28 128.095 25.28C128.681 25.28 129.068 25.4 129.255 25.64C129.468 25.8533 129.641 26.2533 129.775 26.84C130.335 26.7333 130.921 26.68 131.535 26.68C132.841 26.68 133.495 27.1467 133.495 28.08C133.495 28.64 133.295 29.9733 132.895 32.08C132.281 35.1467 131.975 37.28 131.975 38.48C131.975 38.88 132.068 39.2 132.255 39.44C132.468 39.68 132.735 39.8 133.055 39.8C133.561 39.8 134.175 39.48 134.895 38.84C135.615 38.1733 136.588 37.1067 137.815 35.64C138.135 35.2667 138.495 35.08 138.895 35.08C139.241 35.08 139.508 35.24 139.695 35.56C139.908 35.88 140.015 36.32 140.015 36.88C140.015 37.9467 139.761 38.7733 139.255 39.36C138.161 40.72 137.001 41.8667 135.775 42.8C134.548 43.7333 133.361 44.2 132.215 44.2C131.335 44.2 130.521 43.9067 129.775 43.32C129.055 42.7067 128.508 41.88 128.135 40.84C126.748 43.08 125.001 44.2 122.895 44.2ZM124.335 40.16C124.921 40.16 125.481 39.8133 126.015 39.12C126.548 38.4267 126.935 37.5067 127.175 36.36L128.655 29C127.535 29.0267 126.495 29.4533 125.535 30.28C124.601 31.08 123.855 32.1467 123.295 33.48C122.735 34.8133 122.455 36.2267 122.455 37.72C122.455 38.5467 122.615 39.16 122.935 39.56C123.281 39.96 123.748 40.16 124.335 40.16ZM151.924 35.08C152.27 35.08 152.537 35.24 152.724 35.56C152.937 35.88 153.044 36.32 153.044 36.88C153.044 37.9467 152.79 38.7733 152.284 39.36C151.137 40.7733 149.884 41.9333 148.524 42.84C147.19 43.7467 145.67 44.2 143.964 44.2C141.617 44.2 139.87 43.1333 138.724 41C137.604 38.8667 137.044 36.1067 137.044 32.72C137.044 29.4667 137.457 25.76 138.284 21.6C139.137 17.44 140.377 13.8667 142.004 10.88C143.657 7.89333 145.617 6.4 147.884 6.4C149.164 6.4 150.164 7 150.884 8.2C151.63 9.37333 152.004 11.0667 152.004 13.28C152.004 16.4533 151.124 20.1333 149.364 24.32C147.604 28.5067 145.217 32.6533 142.204 36.76C142.39 37.8533 142.697 38.64 143.124 39.12C143.55 39.5733 144.11 39.8 144.804 39.8C145.897 39.8 146.857 39.4933 147.684 38.88C148.51 38.24 149.564 37.16 150.844 35.64C151.164 35.2667 151.524 35.08 151.924 35.08ZM147.004 10.36C146.39 10.36 145.697 11.4667 144.924 13.68C144.15 15.8933 143.47 18.64 142.884 21.92C142.297 25.2 141.977 28.3467 141.924 31.36C143.817 28.24 145.324 25.12 146.444 22C147.564 18.8533 148.124 15.9867 148.124 13.4C148.124 11.3733 147.75 10.36 147.004 10.36ZM155.051 22.72C153.931 22.72 153.091 22.4667 152.531 21.96C151.971 21.4267 151.691 20.6933 151.691 19.76C151.691 18.8267 152.051 18.0533 152.771 17.44C153.517 16.8 154.437 16.48 155.531 16.48C156.517 16.48 157.317 16.72 157.931 17.2C158.544 17.68 158.851 18.36 158.851 19.24C158.851 20.3067 158.504 21.16 157.811 21.8C157.117 22.4133 156.197 22.72 155.051 22.72ZM154.731 44.2C152.997 44.2 151.731 43.5867 150.931 42.36C150.157 41.1333 149.771 39.5067 149.771 37.48C149.771 36.28 149.917 34.7467 150.211 32.88C150.531 30.9867 150.931 29.2267 151.411 27.6C151.651 26.7467 151.971 26.16 152.371 25.84C152.771 25.52 153.411 25.36 154.291 25.36C155.651 25.36 156.331 25.8133 156.331 26.72C156.331 27.3867 156.077 28.9333 155.571 31.36C154.931 34.2933 154.611 36.28 154.611 37.32C154.611 38.12 154.717 38.7333 154.931 39.16C155.144 39.5867 155.504 39.8 156.011 39.8C156.491 39.8 157.091 39.4667 157.811 38.8C158.531 38.1333 159.491 37.08 160.691 35.64C161.011 35.2667 161.371 35.08 161.771 35.08C162.117 35.08 162.384 35.24 162.571 35.56C162.784 35.88 162.891 36.32 162.891 36.88C162.891 37.9467 162.637 38.7733 162.131 39.36C159.491 42.5867 157.024 44.2 154.731 44.2ZM164.254 44.2C162.734 44.2 161.494 43.6 160.534 42.4C159.601 41.2 159.134 39.6267 159.134 37.68C159.134 35.5467 159.628 33.5333 160.614 31.64C161.601 29.72 162.908 28.1867 164.534 27.04C166.188 25.8667 167.934 25.28 169.774 25.28C170.361 25.28 170.748 25.4 170.934 25.64C171.148 25.8533 171.321 26.2533 171.454 26.84C171.961 26.7333 172.521 26.68 173.134 26.68C173.774 26.68 174.268 26.84 174.614 27.16C174.961 27.48 175.134 27.9333 175.134 28.52C175.134 29.1333 175.001 30.2 174.734 31.72C174.441 33.3467 174.214 34.9067 174.054 36.4C173.894 37.8667 173.814 39.52 173.814 41.36C173.814 42.3733 173.601 43.1067 173.174 43.56C172.774 43.9867 172.108 44.2 171.174 44.2C170.268 44.2 169.588 43.9867 169.134 43.56C168.708 43.1067 168.494 42.3867 168.494 41.4L168.534 40.76C167.708 43.0533 166.281 44.2 164.254 44.2ZM165.814 40.16C166.561 40.16 167.241 39.64 167.854 38.6C168.468 37.56 169.014 35.7067 169.494 33.04L170.254 29C169.161 29.0267 168.148 29.4533 167.214 30.28C166.281 31.08 165.534 32.1467 164.974 33.48C164.414 34.8133 164.134 36.2267 164.134 37.72C164.134 38.52 164.281 39.1333 164.574 39.56C164.894 39.96 165.308 40.16 165.814 40.16Z" fill="#294634"/>
<path d="M44.684 66V57.36H45.656V61.188H52.556V57.36H53.54V66H52.556V62.172H45.656V66H44.684ZM56.271 66C56.007 66 55.763 65.936 55.539 65.808C55.323 65.672 55.147 65.496 55.011 65.28C54.883 65.056 54.819 64.812 54.819 64.548V60.492C54.819 60.228 54.883 59.988 55.011 59.772C55.147 59.548 55.323 59.372 55.539 59.244C55.763 59.108 56.007 59.04 56.271 59.04H60.447C60.719 59.04 60.963 59.108 61.179 59.244C61.403 59.372 61.579 59.548 61.707 59.772C61.843 59.988 61.911 60.228 61.911 60.492V63.012H55.803V64.548C55.803 64.676 55.847 64.788 55.935 64.884C56.031 64.972 56.143 65.016 56.271 65.016H61.911V66H56.271ZM55.803 62.028H60.915V60.492C60.915 60.364 60.867 60.256 60.771 60.168C60.683 60.072 60.575 60.024 60.447 60.024H56.271C56.143 60.024 56.031 60.072 55.935 60.168C55.847 60.256 55.803 60.364 55.803 60.492V62.028ZM64.5916 66C64.3276 66 64.0836 65.936 63.8596 65.808C63.6436 65.672 63.4676 65.496 63.3316 65.28C63.2036 65.056 63.1396 64.812 63.1396 64.548V62.028H69.2356V60.492C69.2356 60.364 69.1876 60.256 69.0916 60.168C69.0036 60.072 68.8956 60.024 68.7676 60.024H63.1396V59.04H68.7676C69.0396 59.04 69.2836 59.108 69.4996 59.244C69.7236 59.372 69.8996 59.548 70.0276 59.772C70.1636 59.988 70.2316 60.228 70.2316 60.492V66H64.5916ZM64.5916 65.016H69.2356V63.012H64.1236V64.548C64.1236 64.676 64.1676 64.788 64.2556 64.884C64.3516 64.972 64.4636 65.016 64.5916 65.016ZM72.8065 66C72.5425 66 72.2985 65.936 72.0745 65.808C71.8585 65.672 71.6825 65.496 71.5465 65.28C71.4185 65.056 71.3545 64.812 71.3545 64.548V56.76H72.3385V64.548C72.3385 64.676 72.3825 64.788 72.4705 64.884C72.5665 64.972 72.6785 65.016 72.8065 65.016H73.9825V66H72.8065ZM76.4396 66C76.1676 66 75.9196 65.936 75.6956 65.808C75.4796 65.672 75.3076 65.496 75.1796 65.28C75.0516 65.056 74.9876 64.812 74.9876 64.548V56.76H75.9716V59.04H78.9836V60.024H75.9716V64.548C75.9716 64.676 76.0156 64.788 76.1036 64.884C76.1996 64.972 76.3116 65.016 76.4396 65.016H78.9836V66H76.4396ZM79.98 66V56.76H80.964V59.04H85.62C85.884 59.04 86.124 59.108 86.34 59.244C86.564 59.372 86.74 59.548 86.868 59.772C87.004 59.988 87.072 60.228 87.072 60.492V66H86.088V60.492C86.088 60.364 86.04 60.256 85.944 60.168C85.856 60.072 85.748 60.024 85.62 60.024H81.444C81.316 60.024 81.204 60.072 81.108 60.168C81.012 60.256 80.964 60.364 80.964 60.492V66H79.98Z" fill="#294634"/>
<path d="M120.672 68V59.36H122.004L128.34 66.896V59.36H129.312V68H127.98L121.644 60.464V68H120.672ZM132.072 68C131.808 68 131.564 67.936 131.34 67.808C131.124 67.672 130.948 67.496 130.812 67.28C130.684 67.056 130.62 66.812 130.62 66.548V61.04H131.604V66.548C131.604 66.676 131.648 66.788 131.736 66.884C131.832 66.972 131.944 67.016 132.072 67.016H136.248C136.376 67.016 136.488 66.972 136.584 66.884C136.68 66.788 136.728 66.676 136.728 66.548V61.04H137.712V66.548C137.712 66.812 137.644 67.056 137.508 67.28C137.38 67.496 137.204 67.672 136.98 67.808C136.764 67.936 136.52 68 136.248 68H132.072ZM140.24 68C139.968 68 139.72 67.936 139.496 67.808C139.28 67.672 139.108 67.496 138.98 67.28C138.852 67.056 138.788 66.812 138.788 66.548V58.76H139.772V61.04H142.784V62.024H139.772V66.548C139.772 66.676 139.816 66.788 139.904 66.884C140 66.972 140.112 67.016 140.24 67.016H142.784V68H140.24ZM143.698 68V62.492C143.698 62.228 143.762 61.988 143.89 61.772C144.026 61.548 144.202 61.372 144.418 61.244C144.642 61.108 144.886 61.04 145.15 61.04H149.062V62.024H145.15C145.022 62.024 144.91 62.072 144.814 62.168C144.726 62.256 144.682 62.364 144.682 62.492V68H143.698ZM149.839 68V61.04H150.823V68H149.839ZM149.839 59.744V58.76H150.823V59.744H149.839ZM153.799 68C153.527 68 153.279 67.936 153.055 67.808C152.839 67.672 152.667 67.496 152.539 67.28C152.411 67.056 152.347 66.812 152.347 66.548V58.76H153.331V61.04H156.343V62.024H153.331V66.548C153.331 66.676 153.375 66.788 153.463 66.884C153.559 66.972 153.671 67.016 153.799 67.016H156.343V68H153.799ZM157.315 68V61.04H158.299V68H157.315ZM157.315 59.744V58.76H158.299V59.744H157.315ZM161.252 68C160.988 68 160.744 67.936 160.52 67.808C160.304 67.672 160.128 67.496 159.992 67.28C159.864 67.056 159.8 66.812 159.8 66.548V62.492C159.8 62.228 159.864 61.988 159.992 61.772C160.128 61.548 160.304 61.372 160.52 61.244C160.744 61.108 160.988 61.04 161.252 61.04H165.428C165.7 61.04 165.944 61.108 166.16 61.244C166.384 61.372 166.56 61.548 166.688 61.772C166.824 61.988 166.892 62.228 166.892 62.492V66.548C166.892 66.812 166.824 67.056 166.688 67.28C166.56 67.496 166.384 67.672 166.16 67.808C165.944 67.936 165.7 68 165.428 68H161.252ZM161.252 67.016H165.428C165.556 67.016 165.664 66.972 165.752 66.884C165.848 66.788 165.896 66.676 165.896 66.548V62.492C165.896 62.364 165.848 62.256 165.752 62.168C165.664 62.072 165.556 62.024 165.428 62.024H161.252C161.124 62.024 161.012 62.072 160.916 62.168C160.828 62.256 160.784 62.364 160.784 62.492V66.548C160.784 66.676 160.828 66.788 160.916 66.884C161.012 66.972 161.124 67.016 161.252 67.016ZM167.968 68V61.04H173.608C173.872 61.04 174.112 61.108 174.328 61.244C174.552 61.372 174.728 61.548 174.856 61.772C174.992 61.988 175.06 62.228 175.06 62.492V68H174.076V62.492C174.076 62.364 174.028 62.256 173.932 62.168C173.844 62.072 173.736 62.024 173.608 62.024H169.432C169.304 62.024 169.192 62.072 169.096 62.168C169 62.256 168.952 62.364 168.952 62.492V68H167.968Z" fill="#294634"/>
<defs>
<clipPath id="clip0_156_745">
<rect width="35" height="33" fill="white" transform="translate(179 52)"/>
</clipPath>
</defs>
</svg>
