<svg width="150" height="150" viewBox="0 0 150 150" fill="none" xmlns="http://www.w3.org/2000/svg">
<path d="M81.9456 98.4597H67.8521V103.034H81.9456V98.4597Z" fill="#294634"/>
<path d="M74.8969 86.6229C78.7506 86.6229 81.8858 83.4937 81.8858 79.6476H77.3029C77.3029 80.9719 76.2236 82.0491 74.8966 82.0491C73.5698 82.0491 72.4905 80.9719 72.4905 79.6476H67.9082C67.9082 83.4937 71.0434 86.6229 74.8969 86.6229Z" fill="#294634"/>
<path d="M77.3934 131.222H72.8105V135.91H77.3934V131.222Z" fill="#294634"/>
<path d="M77.3934 138.253H72.8105V142.942H77.3934V138.253Z" fill="#294634"/>
<path d="M77.3934 145.285H72.8105V149.974H77.3934V145.285Z" fill="#294634"/>
<path d="M16.3839 131.28H11.6865V135.854H16.3839V131.28Z" fill="#294634"/>
<path d="M23.4296 131.28H18.7319V135.854H23.4296V131.28Z" fill="#294634"/>
<path d="M131.472 131.28H126.774V135.854H131.472V131.28Z" fill="#294634"/>
<path d="M138.52 131.28H133.822V135.854H138.52V131.28Z" fill="#294634"/>
<path d="M138.149 114.683C131.124 105.415 121.33 98.342 110.38 94.5817C111.831 90.5854 112.624 86.277 112.624 81.7866V67.865C117.705 67.7856 121.814 63.6387 121.814 58.5489C121.814 53.4592 117.705 49.3122 112.624 49.2328V37.4505C112.625 16.8003 95.7923 0 75.102 0C54.4117 0 37.5798 16.8003 37.5798 37.4508V49.229H37.3174C32.1685 49.229 27.9799 53.41 27.9799 58.5486C27.9799 63.6873 32.1688 67.8683 37.3174 67.8683H37.5798V82.1959C37.5798 86.5269 38.3268 90.6861 39.6946 94.5557C28.714 98.3095 18.8904 105.394 11.8495 114.684C4.09739 124.913 0 137.116 0 149.975H4.58288C4.58288 148.381 4.65304 146.799 4.78924 145.23H28.1848V149.975H32.7676V126.533H28.1848V131.278H25.7784V135.853H28.1848V140.655H5.38129C5.6619 139.035 6.01414 137.432 6.44093 135.853H9.33719V131.278H7.90359C9.72025 126.368 12.2646 121.719 15.5043 117.444C22.0641 108.789 31.2416 102.212 41.4896 98.7803C45.9043 107.603 53.7242 114.443 63.2211 117.573C63.443 123.812 68.5933 128.82 74.8971 128.82C81.1936 128.82 86.3401 123.823 86.5726 117.595C96.1455 114.478 104.047 107.638 108.552 98.7943C118.783 102.23 127.944 108.8 134.495 117.443C137.735 121.718 140.279 126.368 142.096 131.278H140.868V135.853H143.559C143.986 137.433 144.338 139.035 144.619 140.655H121.866L121.919 135.853H124.427V131.278H121.969L122.021 126.558L117.438 126.508L117.181 149.95L121.763 150L121.816 145.229H145.211C145.346 146.798 145.417 148.381 145.417 149.975H150C149.999 137.116 145.901 124.912 138.149 114.683ZM112.625 53.8107C115.178 53.8898 117.232 55.9822 117.232 58.5492C117.232 61.1162 115.178 63.2086 112.625 63.2877V53.8107ZM37.5798 63.2947H37.3174C34.6955 63.2947 32.5625 61.166 32.5625 58.5489C32.5625 55.9321 34.6952 53.8031 37.3174 53.8031H37.5798V63.2947ZM75.102 4.57412C92.2621 4.57412 106.397 17.7393 107.906 34.4813L100.76 32.6815L91.5549 37.2753L82.0992 33.2306L75.1895 37.1616L68.2886 33.2253L63.6455 35.2113L63.4354 35.1064L62.6149 35.6522L58.8211 37.275L49.6183 32.6824L42.2956 34.5097C43.7912 17.7545 57.9323 4.57412 75.102 4.57412ZM42.1621 39.2578L49.0847 37.5305L58.672 42.3149L67.9956 38.3268L75.186 42.4283L82.388 38.3306L91.7029 42.3149L101.288 37.5316L108.041 39.2326V48.7336H108.041L99.9367 63.2944H91.2805V53.8605H86.6976V63.2944H77.5935V67.9831H72.7814V63.2947H63.0955V53.8608H58.5126V63.2947H50.4384L42.1618 48.426V39.2578H42.1621ZM91.2808 67.9263V67.8688H96.3841V72.6718H82.1767V67.8688H86.6979V67.9263H91.2808ZM63.0957 67.9263V67.8688H68.1988V72.6718H53.9916V67.8688H58.5129V67.9263H63.0957ZM74.8968 124.245C71.5471 124.245 68.7333 121.919 67.9883 118.8C70.2282 119.22 72.5371 119.442 74.8971 119.442C77.2556 119.442 79.5639 119.223 81.8036 118.808C81.0557 121.923 78.2437 124.245 74.8968 124.245ZM108.042 81.7869C108.042 99.2593 94.3993 113.609 77.1881 114.788V112.467H72.6052V114.788C55.6204 113.609 42.1621 99.4433 42.1621 82.1968V57.8446L49.409 70.8636V77.2468H72.7816V72.5584H77.5938V77.2468H100.967V70.8633L108.042 58.1528V81.7869Z" fill="#294634"/>
<path d="M96.3256 46.8864H84.582V51.4606H96.3256V46.8864Z" fill="#294634"/>
<path d="M65.7922 46.8864H54.0483V51.4606H65.7922V46.8864Z" fill="#294634"/>
</svg>
