<svg width="100" height="102" viewBox="0 0 100 102" fill="none" xmlns="http://www.w3.org/2000/svg">
<path d="M20.4061 11.7915C21.3414 11.7915 22.0996 11.0333 22.0996 10.098C22.0996 9.16274 21.3414 8.40454 20.4061 8.40454C19.4708 8.40454 18.7126 9.16274 18.7126 10.098C18.7126 11.0333 19.4708 11.7915 20.4061 11.7915Z" fill="#294634"/>
<path d="M15.3257 16.8719C16.261 16.8719 17.0192 16.1137 17.0192 15.1785C17.0192 14.2432 16.261 13.485 15.3257 13.485C14.3904 13.485 13.6322 14.2432 13.6322 15.1785C13.6322 16.1137 14.3904 16.8719 15.3257 16.8719Z" fill="#294634"/>
<path d="M55.9692 16.8719C56.9045 16.8719 57.6627 16.1137 57.6627 15.1785C57.6627 14.2432 56.9045 13.485 55.9692 13.485C55.0339 13.485 54.2757 14.2432 54.2757 15.1785C54.2757 16.1137 55.0339 16.8719 55.9692 16.8719Z" fill="#294634"/>
<path d="M61.0496 11.7915C61.9849 11.7915 62.7431 11.0333 62.7431 10.098C62.7431 9.16274 61.9849 8.40454 61.0496 8.40454C60.1143 8.40454 59.3561 9.16274 59.3561 10.098C59.3561 11.0333 60.1143 11.7915 61.0496 11.7915Z" fill="#294634"/>
<path d="M66.1301 16.8719C67.0653 16.8719 67.8235 16.1137 67.8235 15.1785C67.8235 14.2432 67.0653 13.485 66.1301 13.485C65.1948 13.485 64.4366 14.2432 64.4366 15.1785C64.4366 16.1137 65.1948 16.8719 66.1301 16.8719Z" fill="#294634"/>
<path d="M45.8083 27.0328C46.7436 27.0328 47.5018 26.2746 47.5018 25.3394C47.5018 24.4041 46.7436 23.6459 45.8083 23.6459C44.873 23.6459 44.1148 24.4041 44.1148 25.3394C44.1148 26.2746 44.873 27.0328 45.8083 27.0328Z" fill="#294634"/>
<path d="M35.6474 27.0328C36.5827 27.0328 37.3409 26.2746 37.3409 25.3394C37.3409 24.4041 36.5827 23.6459 35.6474 23.6459C34.7121 23.6459 33.9539 24.4041 33.9539 25.3394C33.9539 26.2746 34.7121 27.0328 35.6474 27.0328Z" fill="#294634"/>
<path d="M86.4518 27.0328C87.3871 27.0328 88.1453 26.2746 88.1453 25.3394C88.1453 24.4041 87.3871 23.6459 86.4518 23.6459C85.5166 23.6459 84.7584 24.4041 84.7584 25.3394C84.7584 26.2746 85.5166 27.0328 86.4518 27.0328Z" fill="#294634"/>
<path d="M40.7278 32.1133C41.6631 32.1133 42.4213 31.3551 42.4213 30.4198C42.4213 29.4845 41.6631 28.7263 40.7278 28.7263C39.7926 28.7263 39.0344 29.4845 39.0344 30.4198C39.0344 31.3551 39.7926 32.1133 40.7278 32.1133Z" fill="#294634"/>
<path d="M45.8083 37.1937C46.7436 37.1937 47.5018 36.4355 47.5018 35.5002C47.5018 34.565 46.7436 33.8068 45.8083 33.8068C44.873 33.8068 44.1148 34.565 44.1148 35.5002C44.1148 36.4355 44.873 37.1937 45.8083 37.1937Z" fill="#294634"/>
<path d="M30.567 32.1133C31.5022 32.1133 32.2604 31.3551 32.2604 30.4198C32.2604 29.4845 31.5022 28.7263 30.567 28.7263C29.6317 28.7263 28.8735 29.4845 28.8735 30.4198C28.8735 31.3551 29.6317 32.1133 30.567 32.1133Z" fill="#294634"/>
<path d="M35.6474 37.1937C36.5827 37.1937 37.3409 36.4355 37.3409 35.5002C37.3409 34.565 36.5827 33.8068 35.6474 33.8068C34.7121 33.8068 33.9539 34.565 33.9539 35.5002C33.9539 36.4355 34.7121 37.1937 35.6474 37.1937Z" fill="#294634"/>
<path d="M91.5323 32.1133C92.4676 32.1133 93.2258 31.3551 93.2258 30.4198C93.2258 29.4845 92.4676 28.7263 91.5323 28.7263C90.597 28.7263 89.8388 29.4845 89.8388 30.4198C89.8388 31.3551 90.597 32.1133 91.5323 32.1133Z" fill="#294634"/>
<path d="M81.3714 32.1133C82.3067 32.1133 83.0649 31.3551 83.0649 30.4198C83.0649 29.4845 82.3067 28.7263 81.3714 28.7263C80.4361 28.7263 79.6779 29.4845 79.6779 30.4198C79.6779 31.3551 80.4361 32.1133 81.3714 32.1133Z" fill="#294634"/>
<path d="M86.4518 37.1937C87.3871 37.1937 88.1453 36.4355 88.1453 35.5002C88.1453 34.565 87.3871 33.8068 86.4518 33.8068C85.5166 33.8068 84.7584 34.565 84.7584 35.5002C84.7584 36.4355 85.5166 37.1937 86.4518 37.1937Z" fill="#294634"/>
<path d="M100 20.503C100 20.2422 99.9458 19.9949 99.8493 19.7697C99.8425 19.6054 99.8154 19.4395 99.7697 19.2786L92.7909 4.05758C91.6596 1.59187 89.1736 0 86.4589 0H72.6249H69.182H52.5826H49.1956H32.5961H29.1533H15.3192C12.6063 0 10.1219 1.59187 8.98899 4.05588L2.10838 18.9992L2.01693 19.243C1.95089 19.475 1.93903 19.7138 1.95258 19.9509C1.84081 20.2117 1.77815 20.4996 1.77815 20.801V32.1761C1.77815 34.5487 2.39458 36.779 3.47163 38.7197V51.1685C2.69433 52.0203 2.11685 53.0855 1.8967 54.2676C1.71041 55.2786 1.76969 56.3489 2.07113 57.3649C2.23539 57.9204 2.105 58.5944 1.71888 59.1651C-0.0541915 61.7866 -0.414903 65.4428 0.824725 68.2625C1.01101 68.6892 1.24471 69.0906 1.51905 69.4615C1.91025 69.9881 2.04911 70.6875 1.89162 71.3311C1.80356 71.6782 1.74428 72.0356 1.71211 72.3912C1.57324 73.9086 1.88654 75.3819 2.13548 76.5639C2.39797 77.8086 2.79594 79.6918 4.19136 80.8908C4.93649 81.5326 5.85097 81.8662 6.86029 81.9221V88.061H1.89839L1.0398 88.0965L0 89.3751L2.03895 101.609H11.6342H15.0669H61.05H91.5326H98.3065V38.7197C99.3836 36.7773 100 34.5487 100 32.1761V20.503ZM95.3243 37.116C95.2684 37.2176 95.2041 37.3141 95.1448 37.4124C94.9196 37.7849 94.674 38.1406 94.4098 38.4759C94.4047 38.4809 94.4014 38.4877 94.3963 38.4928C94.1355 38.823 93.8544 39.1329 93.5597 39.4242C93.497 39.4852 93.4293 39.5411 93.3649 39.6003C93.265 39.6935 93.16 39.7765 93.0567 39.8645C92.7858 39.2887 92.21 38.884 91.5326 38.884C90.5978 38.884 89.8391 39.6427 89.8391 40.5775C89.8391 40.9704 89.9949 41.3141 90.2185 41.602C90.1253 41.6393 90.0305 41.6715 89.9373 41.7053C89.7189 41.7849 89.5004 41.8611 89.2769 41.9255C89.1211 41.9712 88.9636 42.0085 88.8061 42.0474C88.5588 42.1067 88.3082 42.1541 88.0542 42.1947C87.9204 42.2168 87.7866 42.2405 87.6511 42.2557C87.2566 42.3065 86.8569 42.337 86.4522 42.337C85.1211 42.337 83.8527 42.0728 82.6859 41.6054C82.9094 41.3175 83.0652 40.9737 83.0652 40.5809C83.0652 39.6461 82.3065 38.8874 81.3717 38.8874C80.6892 38.8874 80.1101 39.2955 79.8408 39.8764C78.8349 39.011 78.0017 37.9526 77.3954 36.7604C77.7494 36.4505 77.9848 36.0085 77.9848 35.5004C77.9848 34.6181 77.3023 33.9153 76.4386 33.8374C76.3489 33.2955 76.2913 32.7434 76.2913 32.1778V27.0347C77.2261 27.0347 77.9848 26.276 77.9848 25.3412C77.9848 24.4064 77.2261 23.6478 76.2913 23.6478V22.0152H76.6266H96.613V23.6461C95.6782 23.6461 94.9196 24.4047 94.9196 25.3395C94.9196 26.2743 95.6782 27.033 96.613 27.033V32.1761C96.613 32.7434 96.5555 33.2955 96.4657 33.8357C95.6037 33.9136 94.9196 34.6164 94.9196 35.4987C94.9196 36.0068 95.1533 36.4488 95.5089 36.7587C95.4666 36.84 95.4327 36.9263 95.3886 37.0076L95.3243 37.116ZM40.7282 38.8874C39.7934 38.8874 39.0347 39.6461 39.0347 40.5809C39.0347 41.4259 39.6647 42.0965 40.4742 42.2235C40.0034 42.2896 39.5258 42.337 39.0347 42.337C33.431 42.337 28.8738 37.7798 28.8738 32.1761V30.42V22.0152H49.1956V32.1761C49.1956 36.8908 45.9644 40.8535 41.6037 41.9949C42.0847 41.6969 42.4217 41.1871 42.4217 40.5809C42.4217 39.6444 41.6647 38.8874 40.7282 38.8874ZM14.1287 42.2591C13.9932 42.2422 13.8594 42.2185 13.7257 42.1981C13.4716 42.1575 13.221 42.1101 12.9738 42.0508C12.8163 42.0135 12.6588 41.9746 12.503 41.9289C12.2794 41.8645 12.0593 41.7866 11.8425 41.707C11.6901 41.6511 11.536 41.6037 11.3887 41.5411C11.0686 41.4056 10.757 41.2532 10.4539 41.0872C10.2997 41.0025 10.1524 40.906 10.0034 40.8129C9.82049 40.6994 9.63929 40.5826 9.46317 40.4572C9.32938 40.3624 9.19898 40.2642 9.07028 40.1626C8.84505 39.9848 8.62659 39.7985 8.4166 39.6003C8.35394 39.5411 8.2862 39.4869 8.22523 39.4259C7.93057 39.1346 7.64945 38.8247 7.38696 38.4945C7.38188 38.4894 7.37849 38.4826 7.37341 38.4776C7.10923 38.1423 6.86367 37.7866 6.63844 37.4141C6.57917 37.3158 6.51482 37.2193 6.45893 37.1177L6.39458 37.0093C5.6105 35.5699 5.16511 33.9238 5.16511 32.1761V22.0152H25.1516H25.4869V32.1761C25.4869 37.7798 20.9297 42.337 15.326 42.337C14.9213 42.337 14.5233 42.3065 14.1287 42.2591ZM52.5826 22.0152H72.9043V32.1761C72.9043 37.7798 68.3472 42.337 62.7434 42.337C57.1397 42.337 52.5826 37.7798 52.5826 32.1761V22.0152ZM86.4589 3.38696C87.8527 3.38696 89.1312 4.20491 89.7138 5.47163L95.7629 18.6283H76.2913H76.0119L74.6266 11.0076L73.2413 3.38696H86.4589ZM52.5826 3.38696H55.6562C54.8755 3.53768 54.276 4.19306 54.276 5.01778C54.276 5.95258 55.0347 6.71126 55.9695 6.71126C56.9043 6.71126 57.663 5.95258 57.663 5.01778C57.663 4.19306 57.0618 3.53768 56.2828 3.38696H65.8188C65.0381 3.53768 64.4386 4.19306 64.4386 5.01778C64.4386 5.95258 65.1973 6.71126 66.1321 6.71126C67.0669 6.71126 67.8256 5.95258 67.8256 5.01778C67.8256 4.19306 67.2244 3.53768 66.4454 3.38696H69.8002L70.7299 8.50127C70.0356 8.71295 69.5207 9.33277 69.5207 10.0965C69.5207 11.0313 70.2794 11.79 71.2142 11.79C71.2532 11.79 71.2853 11.7697 71.3243 11.768L72.569 18.6283H52.5826V3.38696ZM31.9814 3.38696H49.1956V18.6283H29.2108L30.5961 11.0076L31.9814 3.38696ZM9.30398 11.4682C9.57663 11.6562 9.88992 11.7917 10.2456 11.7917C11.1804 11.7917 11.939 11.033 11.939 10.0982C11.939 9.31414 11.3971 8.68417 10.674 8.49111L12.066 5.46994C12.547 4.42168 13.514 3.71211 14.6215 3.48857C14.0406 3.75783 13.6325 4.337 13.6325 5.01778C13.6325 5.95258 14.3912 6.71126 15.326 6.71126C16.2608 6.71126 17.0195 5.95258 17.0195 5.01778C17.0195 4.19306 16.4183 3.53768 15.6393 3.38696H25.1753C24.3946 3.53768 23.7951 4.19306 23.7951 5.01778C23.7951 5.95258 24.5538 6.71126 25.4886 6.71126C26.4234 6.71126 27.182 5.95258 27.182 5.01778C27.182 4.19306 26.5809 3.53768 25.8019 3.38696H28.5402L27.155 11.0076L26.6215 13.9373C26.3201 13.663 25.9289 13.4852 25.4886 13.4852C24.5538 13.4852 23.7951 14.2439 23.7951 15.1787C23.7951 16.1135 24.5538 16.8721 25.4886 16.8721C25.7087 16.8721 25.917 16.823 26.1101 16.7468L25.7663 18.6283H25.4869H6.00677L9.30398 11.4682ZM5.44793 75.8628C5.23455 74.8518 4.99069 73.707 5.08383 72.6994C5.10076 72.5182 5.12955 72.3319 5.17697 72.149C5.57832 70.5317 5.22608 68.7705 4.23539 67.4411C4.11685 67.2786 4.00677 67.0923 3.92379 66.9026C3.14818 65.1346 3.39373 62.7333 4.52328 61.0635C5.48349 59.6393 5.77138 57.9407 5.31583 56.4064C5.1685 55.9069 5.13802 55.3666 5.22608 54.8857C5.34462 54.2456 5.67485 53.6647 6.11346 53.2633L6.22523 53.1736C6.39119 53.0415 6.53006 52.95 6.6503 52.8925L8.18459 51.6393C8.30652 51.514 8.45555 51.4293 8.61304 51.3599C8.6503 51.3429 8.68755 51.3294 8.72481 51.3158C9.0381 51.2058 9.37849 51.177 9.66469 51.1837C9.83743 51.1888 10.0051 51.2024 10.1135 51.2159C10.7265 51.3023 11.2854 51.5089 11.7578 51.8019L12.1304 52.1101C12.3082 52.2574 12.4522 52.398 12.5758 52.5368C12.6977 52.6859 12.8213 52.8349 12.9094 53.0025C13.1702 53.5055 13.2515 54.188 13.1245 54.7858C12.7993 56.3065 13.1888 57.9255 14.1693 59.116C14.3692 59.3599 14.5216 59.6833 14.5859 60.0051C14.6283 60.2151 14.6486 60.4369 14.6486 60.6723C14.6469 61.3802 14.4555 62.2083 14.0677 63.1854C13.7409 64.0135 13.3666 64.7197 12.9585 65.282C12.1287 66.4251 11.829 67.9204 12.083 69.4157C12.1677 69.9136 12.3133 70.4132 12.5233 70.8992C12.7231 71.3582 12.8383 71.8831 12.8688 72.4115C12.8992 72.9416 12.8417 73.4767 12.696 73.9594C12.6147 74.2303 12.5114 74.486 12.3946 74.7299C12.1609 75.2159 11.851 75.6782 11.4666 76.1135C11.4496 76.1321 11.4327 76.1473 11.4157 76.166C11.243 76.3573 11.055 76.5453 10.8535 76.7265C10.1846 77.326 9.48518 77.7544 8.97036 78.022C8.96359 78.0254 8.95512 78.0288 8.94835 78.0322C8.68755 78.1643 8.40813 78.2777 8.12701 78.3692C7.45809 78.5876 6.78577 78.6537 6.39627 78.3234C5.87129 77.8679 5.61727 76.6621 5.44793 75.8628ZM12.1981 98.2218H4.90601L3.77815 91.4479H6.85859H13.326L12.1981 98.2218ZM10.2456 88.061V81.1685C10.3404 81.1245 10.4335 81.077 10.5267 81.0296C11.475 80.5402 12.3201 79.9526 13.0584 79.2972L13.0618 79.3006C13.0771 79.287 13.0872 79.2735 13.1025 79.2599C13.4276 78.9687 13.7324 78.6655 14.0119 78.3472C14.0542 78.298 14.0898 78.2456 14.1321 78.1964C14.3455 77.9424 14.547 77.6816 14.7299 77.4141C14.8129 77.2938 14.8874 77.1719 14.9636 77.05C15.1008 76.8298 15.2261 76.6029 15.3429 76.3743C15.4039 76.254 15.4682 76.1338 15.5241 76.0102C15.6833 75.6613 15.8239 75.3057 15.9356 74.9399C16.066 74.508 16.1575 74.0593 16.2083 73.602C16.2591 73.1448 16.2726 72.6791 16.2456 72.2168C16.1931 71.2921 15.9865 70.3759 15.6308 69.5529C15.2701 68.7197 15.2972 67.8239 15.6986 67.2718C15.8645 67.0432 16.0119 66.7739 16.166 66.5182C16.5487 65.8899 16.9077 65.2108 17.2142 64.4352C17.9797 62.5047 18.2066 60.84 17.9052 59.3395C17.729 58.4606 17.3395 57.6376 16.779 56.9602C16.4657 56.5792 16.3268 55.9915 16.4335 55.4953C16.5284 55.0517 16.5555 54.5995 16.5504 54.1473C16.5487 54.0305 16.5436 53.917 16.5351 53.8002C16.5097 53.4022 16.4505 53.011 16.3505 52.63C16.3387 52.5876 16.3421 52.5419 16.3302 52.4996H54.271V88.0627H17.326H15.3175L10.2456 88.061ZM64.4369 98.2218V52.4979H88.1456V98.2218H64.4369ZM94.9196 98.2218H91.5326V49.1109H61.05V98.2218H15.6325L16.7621 91.4479H57.6647V49.1109H13.8205C12.8925 48.4725 11.7917 48.0322 10.591 47.8611C10.149 47.7985 9.72566 47.7883 9.31245 47.8036C9.20237 47.8069 9.09568 47.8188 8.9873 47.8273C8.66892 47.8544 8.3624 47.9035 8.06943 47.9763C7.98306 47.9983 7.895 48.0135 7.81033 48.0373C7.47333 48.1389 7.14987 48.2608 6.85859 48.42V42.7553C7.83065 43.5394 8.90771 44.171 10.0542 44.6554C10.0593 44.6571 10.0627 44.6588 10.0677 44.6605C10.442 44.8179 10.8247 44.9585 11.2142 45.0804C11.2803 45.1008 11.3463 45.1211 11.4124 45.1414C11.7426 45.2413 12.0779 45.326 12.4183 45.4005C12.5199 45.4225 12.6215 45.4462 12.7231 45.4665C13.0415 45.5275 13.3649 45.5766 13.6918 45.6156C13.8036 45.6291 13.9136 45.6478 14.0254 45.6579C14.4555 45.6986 14.8891 45.724 15.326 45.724C15.8984 45.724 16.4589 45.6765 17.0127 45.6071C17.1719 45.5868 17.3294 45.5597 17.4869 45.5343C17.9052 45.4666 18.315 45.3802 18.7197 45.2752C18.8603 45.2396 19.0008 45.2074 19.1397 45.1668C19.6596 45.0144 20.1677 44.8366 20.6605 44.6249C20.7367 44.5927 20.8061 44.5521 20.8806 44.5182C21.2989 44.3285 21.7053 44.1185 22.1016 43.8882C22.2388 43.8086 22.3709 43.7273 22.5047 43.6427C22.8637 43.4174 23.2091 43.177 23.5445 42.9196C23.6376 42.8484 23.7358 42.7824 23.8273 42.7079C24.2388 42.3759 24.63 42.0203 24.9992 41.6427C25.0821 41.558 25.1583 41.4666 25.2396 41.3785C25.5258 41.0703 25.7968 40.7502 26.0542 40.4183C26.1507 40.293 26.2456 40.1677 26.337 40.0389C26.6029 39.6681 26.8501 39.2854 27.0771 38.8891C27.1092 38.8332 27.1499 38.7824 27.182 38.7265C27.2142 38.7824 27.2549 38.8332 27.287 38.8891C27.514 39.2854 27.7629 39.6681 28.0271 40.0389C28.1185 40.1677 28.2134 40.293 28.3099 40.4183C28.5673 40.7519 28.8383 41.072 29.1245 41.3785C29.2058 41.4666 29.2803 41.558 29.3649 41.6427C29.7341 42.0203 30.1253 42.3759 30.5368 42.7079C30.6283 42.7824 30.7265 42.8484 30.8196 42.9196C31.155 43.177 31.5004 43.4174 31.8594 43.6427C31.9932 43.7257 32.1253 43.8086 32.2625 43.8882C32.6571 44.1168 33.0635 44.3285 33.4835 44.5182C33.558 44.5521 33.6291 44.5927 33.7036 44.6249C34.1947 44.8366 34.7045 45.0144 35.2244 45.1668C35.3632 45.2074 35.5038 45.2379 35.6444 45.2752C36.0491 45.3802 36.4589 45.4666 36.8772 45.5343C37.0347 45.5597 37.1922 45.5868 37.3514 45.6071C37.9035 45.6765 38.464 45.724 39.0347 45.724C39.6054 45.724 40.1677 45.6765 40.7214 45.6071C40.8806 45.5868 41.0381 45.5597 41.1956 45.5343C41.6139 45.4666 42.0237 45.3802 42.4284 45.2752C42.569 45.2396 42.7096 45.2074 42.8484 45.1668C43.3683 45.0144 43.8764 44.8366 44.3692 44.6249C44.4454 44.5927 44.5148 44.5521 44.5893 44.5182C45.0076 44.3285 45.4141 44.1185 45.8103 43.8882C45.9475 43.8086 46.0796 43.7273 46.2134 43.6427C46.5724 43.4174 46.9179 43.177 47.2532 42.9196C47.3463 42.8484 47.4445 42.7824 47.536 42.7079C47.9475 42.3759 48.3387 42.0203 48.7079 41.6427C48.7909 41.558 48.8671 41.4666 48.9483 41.3785C49.2345 41.0703 49.5055 40.7502 49.7629 40.4183C49.8594 40.293 49.9543 40.1677 50.0457 40.0389C50.3116 39.6681 50.5588 39.2854 50.7858 38.8891C50.8179 38.8332 50.8586 38.7824 50.8908 38.7265C50.9229 38.7824 50.9636 38.8332 50.9958 38.8891C51.2227 39.2854 51.4716 39.6681 51.7358 40.0389C51.8273 40.1677 51.9221 40.293 52.0186 40.4183C52.276 40.7519 52.547 41.072 52.8332 41.3785C52.9145 41.4666 52.989 41.558 53.0737 41.6427C53.4428 42.0203 53.834 42.3759 54.2456 42.7079C54.337 42.7824 54.4352 42.8484 54.5284 42.9196C54.8637 43.177 55.2091 43.4174 55.5682 43.6427C55.7019 43.7257 55.834 43.8086 55.9712 43.8882C56.3658 44.1168 56.7722 44.3285 57.1922 44.5182C57.2667 44.5521 57.3378 44.5927 57.4124 44.6249C57.9035 44.8366 58.4132 45.0144 58.9331 45.1668C59.072 45.2074 59.2125 45.2379 59.3531 45.2752C59.7578 45.3802 60.1677 45.4666 60.5859 45.5343C60.7434 45.5597 60.9009 45.5868 61.0601 45.6071C61.6122 45.6765 62.1727 45.724 62.7434 45.724C63.3141 45.724 63.8764 45.6765 64.4301 45.6071C64.5893 45.5868 64.7468 45.5597 64.9043 45.5343C65.3226 45.4666 65.7324 45.3802 66.1372 45.2752C66.2777 45.2396 66.4183 45.2074 66.5572 45.1668C67.0771 45.0144 67.5851 44.8366 68.0779 44.6249C68.1541 44.5927 68.2235 44.5521 68.298 44.5182C68.7163 44.3285 69.1228 44.1185 69.5191 43.8882C69.6562 43.8086 69.7883 43.7273 69.9221 43.6427C70.2811 43.4174 70.6266 43.177 70.9619 42.9196C71.055 42.8484 71.1533 42.7824 71.2447 42.7079C71.6562 42.3759 72.0474 42.0203 72.4166 41.6427C72.4996 41.558 72.5758 41.4666 72.6571 41.3785C72.9433 41.0703 73.2142 40.7502 73.4716 40.4183C73.5682 40.293 73.663 40.1677 73.7544 40.0389C74.0203 39.6681 74.2676 39.2854 74.4945 38.8891C74.5267 38.8332 74.5673 38.7824 74.5995 38.7265C74.6317 38.7824 74.6723 38.8332 74.7045 38.8891C74.9314 39.2854 75.1804 39.6681 75.4445 40.0389C75.536 40.1677 75.6308 40.293 75.7273 40.4183C75.9848 40.7519 76.2557 41.072 76.5419 41.3785C76.6232 41.4666 76.6977 41.558 76.7824 41.6427C77.1516 42.0203 77.5428 42.3759 77.9543 42.7079C78.0457 42.7824 78.1439 42.8484 78.2371 42.9196C78.5724 43.177 78.9179 43.4174 79.2769 43.6427C79.4107 43.7257 79.5428 43.8086 79.6799 43.8882C80.0745 44.1168 80.4809 44.3285 80.9009 44.5182C80.9754 44.5521 81.0466 44.5927 81.1211 44.6249C81.6122 44.8366 82.1219 45.0144 82.6418 45.1668C82.7807 45.2074 82.9212 45.2379 83.0618 45.2752C83.4666 45.3802 83.8764 45.4666 84.2947 45.5343C84.4522 45.5597 84.6096 45.5868 84.7688 45.6071C85.3209 45.6765 85.8815 45.724 86.4522 45.724C86.8908 45.724 87.3226 45.6986 87.7527 45.6579C87.8645 45.6478 87.9746 45.6291 88.0864 45.6156C88.4115 45.5766 88.735 45.5292 89.055 45.4665C89.1583 45.4462 89.2583 45.4225 89.3599 45.4005C89.7003 45.326 90.0356 45.2396 90.3658 45.1414C90.4318 45.1211 90.4979 45.1025 90.5639 45.0804C90.9534 44.9568 91.3362 44.8179 91.7104 44.6605C91.7155 44.6588 91.7189 44.6571 91.724 44.6554C92.8704 44.171 93.9475 43.5394 94.9196 42.7553V98.2218Z" fill="#294634"/>
<path d="M83.0649 72.8196C82.1284 72.8196 81.3714 73.5766 81.3714 74.5131V79.5935C81.3714 80.53 82.1284 81.287 83.0649 81.287C84.0014 81.287 84.7584 80.53 84.7584 79.5935V74.5131C84.7584 73.5766 84.0014 72.8196 83.0649 72.8196Z" fill="#294634"/>
<path d="M30.5674 66.0453C31.0009 66.0453 31.4344 65.8794 31.7647 65.5492L38.5386 58.7752C39.2007 58.1131 39.2007 57.0428 38.5386 56.3806C37.8764 55.7185 36.8062 55.7185 36.144 56.3806L29.3701 63.1546C28.7079 63.8167 28.7079 64.887 29.3701 65.5492C29.702 65.8794 30.1355 66.0453 30.5674 66.0453Z" fill="#294634"/>
<path d="M30.5674 74.5127C31.0009 74.5127 31.4344 74.3468 31.7647 74.0166L35.1516 70.6296C35.8138 69.9674 35.8138 68.8972 35.1516 68.235C34.4895 67.5729 33.4192 67.5729 32.757 68.235L29.3701 71.622C28.7079 72.2841 28.7079 73.3544 29.3701 74.0166C29.702 74.3468 30.1355 74.5127 30.5674 74.5127Z" fill="#294634"/>
<path d="M36.1385 64.8437C35.832 65.1638 35.6474 65.6058 35.6474 66.0461C35.6474 66.4864 35.832 66.9267 36.1385 67.2315C36.4586 67.5516 36.8819 67.7396 37.3409 67.7396C37.7812 67.7396 38.2215 67.5533 38.5433 67.2485C38.8481 66.9267 39.0344 66.4864 39.0344 66.0461C39.0344 65.6058 38.8481 65.1638 38.5433 64.8437C37.9167 64.2171 36.7668 64.2171 36.1385 64.8437Z" fill="#294634"/>
<path d="M39.5306 63.8557C39.8625 64.1859 40.296 64.3519 40.7278 64.3519C41.1597 64.3519 41.5949 64.1859 41.9251 63.8557L47.0056 58.7752C47.6677 58.1131 47.6677 57.0428 47.0056 56.3806C46.3434 55.7185 45.2732 55.7185 44.611 56.3806L39.5306 61.4611C38.8701 62.1232 38.8701 63.1935 39.5306 63.8557Z" fill="#294634"/>
<path d="M30.5674 82.9801C31.0009 82.9801 31.4344 82.8142 31.7647 82.484L47.006 67.2426C47.6681 66.5805 47.6681 65.5102 47.006 64.8481C46.3438 64.1859 45.2736 64.1859 44.6114 64.8481L29.3701 80.0894C28.7079 80.7515 28.7079 81.8218 29.3701 82.484C29.702 82.8142 30.1355 82.9801 30.5674 82.9801Z" fill="#294634"/>
<path d="M47.9929 63.8615C48.3129 64.1663 48.7549 64.3526 49.1953 64.3526C49.6356 64.3526 50.0759 64.1663 50.3976 63.8615C50.7024 63.5397 50.8887 63.0994 50.8887 62.6591C50.8887 62.2188 50.7024 61.7768 50.3976 61.4568C49.771 60.8302 48.6195 60.8302 47.9929 61.4568C47.6864 61.7768 47.5018 62.2188 47.5018 62.6591C47.5018 63.0994 47.6881 63.5397 47.9929 63.8615Z" fill="#294634"/>
</svg>
